#!OML:ASF H:\Terrain\Patient Classification 1\Animal1\Tuesday\Animal1.ASF
:FULLY-SPECIFIED
:DEGREES
3896
root 12.4452 16.1852 -14.0998 13.8578 -23.8064 12.7484
lowerback 23.5843 -1.01348 7.11307
upperback 13.3903 -0.158565 10.4837
thorax 1.82777 -0.28975 7.52001
lowerneck -3.92321 10.0245 3.48392
upperneck -20.1319 13.2309 -4.72133
head -4.89817 6.48954 -2.36876
rclavicle 1.59028e-014 1.59028e-015
rhumerus -29.43 50.5625 -40.4879
rradius 58.3417
rwrist -38.2021
rhand -25.9522 18.6297
rfingers 7.12502
rthumb 0.59194 -11.3492
lclavicle 1.59028e-014 1.59028e-015
lhumerus 3.09637 -32.6644 0.695066
lradius 37.4953
lwrist 3.95921
lhand 22.9631 32.6275
lfingers 7.12502
lthumb 47.2847 55.1673
rfemur -46.9886 11.5038 -0.99985
rtibia 41.6468
rfoot -8.02338 -16.2282
rtoes -14.5775
lfemur -23.6178 -9.16086 -20.1157
ltibia 13.5999
lfoot -7.84277 18.8161
ltoes -9.35255
3897
root 12.4328 16.1853 -14.1188 13.9766 -23.6942 12.5556
lowerback 23.6277 -0.992071 7.16467
upperback 13.4689 -0.127543 10.2588
thorax 1.88769 -0.259129 7.22676
lowerneck -4.30468 10.023 3.71664
upperneck -20.1799 13.185 -4.90872
head -4.82413 6.46156 -2.43709
rclavicle 0 1.43125e-014
rhumerus -30.491 50.3668 -41.512
rradius 58.8699
rwrist -38.2899
rhand -25.7068 18.6359
rfingers 7.12502
rthumb 0.828932 -11.3422
lclavicle 0 1.43125e-014
lhumerus 5.36008 -33.9298 -0.81828
lradius 37.9782
lwrist 5.6992
lhand 21.1842 33.3866
lfingers 7.12502
lthumb 45.6366 56.6309
rfemur -47.0522 11.3366 -0.679454
rtibia 41.5912
rfoot -8.34471 -15.9123
rtoes -13.0042
lfemur -23.8471 -9.07021 -19.8448
ltibia 13.805
lfoot -7.14344 19.0226
ltoes -11.7019
3898
root 12.4195 16.1711 -14.1365 14.1487 -23.6265 12.3876
lowerback 23.7564 -1.03088 7.11459
upperback 13.3644 -0.151326 10.0708
thorax 1.70042 -0.262916 7.04621
lowerneck -3.88029 9.96617 3.73745
upperneck -20.5843 13.1002 -5.12445
head -5.00304 6.43055 -2.54576
rclavicle -6.04305e-014 2.38542e-014
rhumerus -31.3876 50.541 -42.388
rradius 59.2768
rwrist -38.5874
rhand -25.2015 19.9316
rfingers 7.12502
rthumb 1.31698 -10.0441
lclavicle -6.04305e-014 2.38542e-014
lhumerus 6.84056 -33.521 -1.01538
lradius 38.0991
lwrist 5.2715
lhand 20.2412 34.259
lfingers 7.12502
lthumb 44.7597 57.8526
rfemur -47.1718 11.1121 -0.343939
rtibia 41.5579
rfoot -7.92573 -15.8969
rtoes -13.7734
lfemur -24.0443 -9.05774 -19.5588
ltibia 13.8272
lfoot -6.41636 19.139
ltoes -13.7523
3899
root 12.4062 16.1674 -14.1486 14.1154 -23.482 12.3716
lowerback 23.8786 -1.10569 6.93157
upperback 13.302 -0.252241 9.83012
thorax 1.56748 -0.309074 6.90054
lowerneck -3.36512 9.94385 3.85761
upperneck -20.9477 13.0761 -5.28187
head -5.18035 6.41947 -2.65664
rclavicle -3.18055e-015 0
rhumerus -32.2882 50.7986 -43.385
rradius 59.6806
rwrist -38.4796
rhand -25.6987 19.8626
rfingers 7.12502
rthumb 0.836738 -10.1155
lclavicle -3.18055e-015 0
lhumerus 8.24719 -32.9123 -0.933494
lradius 38.1627
lwrist 4.35721
lhand 18.1757 35.2091
lfingers 7.12502
lthumb 42.832 59.5141
rfemur -47.0529 10.8959 -0.135965
rtibia 41.5424
rfoot -7.39747 -16.0623
rtoes -14.8083
lfemur -24.058 -9.35184 -19.3944
ltibia 13.8539
lfoot -6.54259 19.3085
ltoes -12.5216
3900
root 12.3922 16.1748 -14.1604 14.0046 -23.2563 12.3507
lowerback 23.8799 -1.20994 6.80291
upperback 13.4284 -0.424943 9.53145
thorax 1.71409 -0.385473 6.67458
lowerneck -3.50379 9.91075 4.08136
upperneck -21.1558 13.0083 -5.40507
head -5.20187 6.37481 -2.72632
rclavicle -4.13472e-014 6.04305e-014
rhumerus -32.7666 50.7151 -44.1961
rradius 60.1392
rwrist -38.6831
rhand -25.6971 18.8095
rfingers 7.12502
rthumb 0.83829 -11.1686
lclavicle -4.13472e-014 6.04305e-014
lhumerus 9.73372 -31.9093 -0.911881
lradius 38.2795
lwrist 3.33713
lhand 15.9017 35.9731
lfingers 7.12502
lthumb 40.6997 60.9842
rfemur -46.825 10.7635 0.0524109
rtibia 41.5129
rfoot -7.23179 -16.3545
rtoes -15.9453
lfemur -23.9915 -9.6787 -19.2409
ltibia 13.8738
lfoot -6.33859 19.4849
ltoes -12.8614
3901
root 12.3767 16.176 -14.1781 13.9873 -23.1418 12.3346
lowerback 23.7687 -1.34643 6.4869
upperback 13.6251 -0.698275 9.30612
thorax 2.0042 -0.528212 6.65977
lowerneck -3.70718 9.89954 3.76857
upperneck -21.407 12.9965 -5.3194
head -5.27618 6.38234 -2.65389
rclavicle -3.81667e-014 1.74931e-014
rhumerus -32.6136 50.9282 -44.4432
rradius 60.4394
rwrist -39.012
rhand -25.1525 18.3912
rfingers 7.12502
rthumb 1.3643 -11.5842
lclavicle -3.81667e-014 1.74931e-014
lhumerus 10.671 -30.7109 -0.495544
lradius 38.4387
lwrist 2.18675
lhand 14.3185 36.4897
lfingers 7.12502
lthumb 39.2097 61.9494
rfemur -46.7775 10.7538 0.155114
rtibia 41.4556
rfoot -7.02002 -16.5879
rtoes -17.7058
lfemur -23.9877 -9.79085 -19.108
ltibia 13.792
lfoot -5.83036 19.5317
ltoes -14.2856
